<?xml version="1.0" encoding="utf-8"?>
<!-- Generator: Adobe Illustrator 23.0.6, SVG Export Plug-In . SVG Version: 6.00 Build 0)  -->
<svg version="1.1" id="Layer_1" xmlns="http://www.w3.org/2000/svg" xmlns:xlink="http://www.w3.org/1999/xlink" x="0px" y="0px"
	 viewBox="0 0 829.37 125" style="enable-background:new 0 0 829.37 125;" xml:space="preserve">
<style type="text/css">
	.st0{fill:#666666;}
	.st1{fill:#FFFFFF;}
</style>
<g>
	<g>
		<path class="st0" d="M439.5,112.5c-8.67,0-17.33,0-26,0c0-0.64,0-1.28,0-2.01c-1.4,0-2.62,0-4.02,0c0-0.69,0-1.31,0-1.94
			c-0.73-0.04-1.29-0.07-2.02-0.11c0-0.67,0-1.29,0-1.99c-0.73,0-1.29,0-2.02,0c0-1.37,0-2.66,0-4.02c-0.73,0-1.29,0-2.01,0
			c0-5.36,0-10.64,0-16c-0.72,0-1.28,0-2.01,0c0-1.37,0-2.65,0-4.02c-0.73,0-1.29,0-1.88,0c-0.03-0.65-0.05-1.21-0.08-1.81
			c-2.68,0-5.29,0-7.91,0c-0.04,0.66-0.07,1.22-0.11,1.95c-0.68,0-1.29,0-1.99,0c0,1.4,0,2.62,0,3.89c-0.7,0.06-1.33,0.11-2.01,0.17
			c0,6.68,0,13.23,0,19.83c-0.69,0.05-1.31,0.1-2.01,0.16c0,1.37,0,2.59,0,3.83c-0.7,0.07-1.33,0.14-1.93,0.2c0,0.72,0,1.3,0,1.88
			c-2.67,0-5.33,0-8,0c0-0.64,0-1.29,0-1.91c-0.79-0.08-1.41-0.15-2.1-0.22c0-1.39,0-2.61,0-3.83c-0.66-0.04-1.22-0.07-1.8-0.1
			c0-26.01,0-51.95,0-77.9c0.65-0.03,1.21-0.06,1.95-0.1c0-1.34,0-2.63,0-4c0.73,0,1.29,0,1.88,0c0.07-0.71,0.12-1.33,0.19-2.03
			c0.69,0,1.25,0,1.8,0c0.07-0.7,0.14-1.32,0.21-2.02c1.38,0,2.61,0,3.82,0c0.04-0.66,0.07-1.22,0.1-1.79c4.02,0,7.97,0,12.01,0
			c0,0.67,0,1.23,0,1.96c1.37,0,2.66,0,4.03,0c0,0.73,0,1.29,0,1.84c0.7,0.07,1.32,0.14,2.01,0.21c0,0.72,0,1.28,0,1.83
			c0.66,0.04,1.22,0.07,1.95,0.11c0,1.35,0,2.64,0,4.01c0.74,0,1.29,0,1.9,0c0.15,4.03-0.1,7.99,0.13,12.02c0.73,0,1.28,0,1.93,0
			c0,1.31,0,2.54,0,3.94c0.71,0,1.32,0,1.93,0c0.04,0.74,0.07,1.3,0.1,1.85c2.7,0,5.32,0,8.02,0c0-0.68,0-1.24,0-1.79
			c0.71-0.08,1.33-0.15,2.02-0.23c0-1.36,0-2.58,0-3.82c0.65-0.03,1.21-0.06,1.94-0.09c0-4.01,0-7.96,0-11.9
			c0.73-0.04,1.29-0.07,2.03-0.11c0-1.36,0-2.65,0-4.01c0.73,0,1.29,0,1.85,0c0.08-0.71,0.15-1.32,0.23-2.02c0.69,0,1.25,0,1.82,0
			c0.03-0.65,0.06-1.21,0.1-1.95c1.34,0,2.63,0,4,0c0-0.74,0-1.29,0-1.84c3.37,0,6.66,0,10.02,0c0,0.68,0,1.24,0,1.88
			c1.31,0,2.54,0,3.94,0c0,0.71,0,1.32,0,1.94c0.74,0.04,1.3,0.07,1.95,0.11c0.03,0.68,0.06,1.3,0.09,2c0.73,0,1.29,0,2.02,0
			c0,1.37,0,2.66,0,3.94c0.76,0,1.34,0,1.92,0c0,24.67,0,49.33,0,74c-0.64,0-1.29,0-2.01,0c0,1.4,0,2.62,0,4.02
			c-0.7,0-1.32,0-1.94,0c-0.04,0.74-0.07,1.3-0.11,1.92c-0.69,0.05-1.31,0.09-2.01,0.14c0,0.7,0,1.26,0,1.99c-1.37,0-2.66,0-3.94,0
			C439.5,111.33,439.5,111.92,439.5,112.5z M397.5,28.49c0,1.26,0.05,2.27-0.02,3.26c-0.05,0.78,0.37,0.78,0.91,0.75
			c0.32-0.02,0.64,0,1.01,0c0-2.05,0-4,0-5.95c-0.66-0.04-1.22-0.07-1.86-0.1c-0.03-0.68-0.06-1.3-0.09-2c-0.73,0-1.29,0-1.87,0
			c-0.07-0.71-0.13-1.33-0.19-1.85c-1.37,0-2.6,0-3.84,0c0,0.65,0,1.2,0,1.94c0.66,0,1.28,0,1.9,0c0.04,0.74,0.07,1.29,0.11,1.91
			c0.68,0.05,1.31,0.09,2.01,0.14c0,0.7,0,1.26,0,1.91C396.21,28.49,396.77,28.49,397.5,28.49z M443.5,24.59
			c-0.66-0.07-1.34-0.14-2.1-0.22c0-0.72,0-1.27,0-1.81c-1.33,0-2.55,0-3.78,0c0,0.69,0,1.3,0,2c0.67,0,1.23,0,1.8,0
			c0.07,0.71,0.14,1.33,0.21,2.02c0.69,0,1.24,0,1.89,0c0,0.65,0,1.21,0,1.94c0.7,0,1.32,0,2.03,0c0,1.4,0,2.63,0,3.86
			c0.71,0,1.32,0,1.88,0c0-2.01,0-3.9,0-5.81c-0.69-0.07-1.32-0.13-1.92-0.19C443.5,25.75,443.5,25.25,443.5,24.59z"/>
		<path class="st0" d="M295.5,16.5c0,0.58,0,1.17,0,1.92c1.28,0,2.56,0,3.94,0c0,0.73,0,1.29,0,2.02c0.7,0.03,1.32,0.06,2,0.09
			c0.04,0.65,0.07,1.21,0.11,1.94c0.62,0,1.24,0,1.94,0c0,1.4,0,2.63,0,3.94c0.64,0,1.2,0,1.88,0c0,24.69,0,49.29,0,73.99
			c-0.5,0-1.05,0-1.79,0c0,1.37,0,2.65,0,4.02c-0.74,0-1.29,0-1.99,0c-0.05,0.7-0.1,1.32-0.16,2.01c-0.61,0.03-1.17,0.07-1.91,0.11
			c0,0.61,0,1.23,0,1.93c-1.4,0-2.63,0-3.94,0c0,0.64,0,1.2,0,1.75c-2.28,0.39-33.49,0.52-42,0.19c0-0.55,0-1.11,0-1.85
			c-1.36,0-2.65,0-4.03,0c0-0.73,0-1.29,0-2.03c-0.7,0-1.32,0-2,0c-0.04-0.73-0.07-1.29-0.11-2.03c-0.63,0-1.26,0-1.95,0
			c0-1.4,0-2.63,0-3.94c-0.64,0-1.2,0-1.88,0c0-24.69,0-49.29,0-73.99c0.5,0,1.06,0,1.8,0c0-1.37,0-2.65,0-4.02
			c0.73,0,1.29,0,1.99,0c0.05-0.7,0.1-1.33,0.15-2.01c0.62-0.03,1.18-0.07,1.91-0.11c0-0.62,0-1.24,0-1.94c1.4,0,2.63,0,4.03,0
			c0-0.73,0-1.37,0-2.01C267.5,16.5,281.5,16.5,295.5,16.5z M273.51,48.41c-0.82,0-1.38,0-1.92,0c-0.07-0.7-0.14-1.32-0.19-1.82
			c-2.73,0-5.28,0-7.86,0c-0.03,0.65-0.05,1.21-0.09,1.94c-0.67,0-1.29,0-1.99,0c0,1.4,0,2.62,0,3.93c-0.7,0.03-1.32,0.06-1.89,0.08
			c0,1.4,0,2.63,0,3.88c0.69,0.06,1.31,0.12,2.01,0.18c0,1.36,0,2.58,0,3.8c0.7,0.08,1.32,0.15,2.01,0.23c0,0.69,0,1.24,0,1.82
			c2.65,0,5.2,0,7.93,0c0-0.66,0-1.28,0-1.9c0.73-0.04,1.29-0.07,2.02-0.11c0-1.34,0-2.63,0-3.89c0.73-0.04,1.29-0.07,1.84-0.1
			c0-1.37,0-2.66,0-4.02c-0.68,0-1.23,0-1.87,0C273.51,51.12,273.51,49.9,273.51,48.41z M299.59,24.5c-0.07-0.66-0.14-1.34-0.22-2.1
			c-0.72,0-1.27,0-1.83,0c-0.04-0.66-0.07-1.22-0.1-1.78c-1.36,0-2.64,0-3.87,0c0,0.67,0,1.23,0,1.8c0.7,0.07,1.32,0.14,2.01,0.21
			c0,0.69,0,1.24,0,1.89c0.65,0,1.21,0,1.94,0c0,0.7,0,1.32,0,1.93c0.74,0.04,1.3,0.07,2.03,0.11c0,1.35,0,2.64,0,3.86
			c0.73,0,1.29,0,1.87,0c0-1.97,0-3.86-0.01-5.75c0-0.06-0.11-0.12-0.16-0.17C300.75,24.5,300.25,24.5,299.59,24.5z"/>
		<path class="st0" d="M359.5,16.5c0,0.58,0,1.17,0,1.92c1.28,0,2.56,0,3.94,0c0,0.73,0,1.29,0,2.02c0.7,0.03,1.32,0.06,2,0.09
			c0.04,0.65,0.07,1.21,0.11,1.94c0.62,0,1.24,0,1.94,0c0,1.4,0,2.63,0,3.94c0.64,0,1.2,0,1.88,0c0,24.69,0,49.29,0,73.99
			c-0.5,0-1.05,0-1.79,0c0,1.37,0,2.65,0,4.02c-0.74,0-1.29,0-1.99,0c-0.05,0.7-0.1,1.32-0.16,2.01c-0.61,0.03-1.17,0.07-1.91,0.11
			c0,0.61,0,1.23,0,1.93c-1.4,0-2.63,0-3.94,0c0,0.64,0,1.2,0,1.75c-2.28,0.39-33.49,0.52-42,0.19c0-0.55,0-1.11,0-1.85
			c-1.36,0-2.65,0-4.03,0c0-0.73,0-1.29,0-2.03c-0.7,0-1.32,0-2,0c-0.04-0.73-0.07-1.29-0.11-2.03c-0.62,0-1.24,0-1.95,0
			c0-1.4,0-2.63,0-3.94c-0.64,0-1.2,0-1.88,0c0-24.69,0-49.29,0-73.99c0.5,0,1.06,0,1.8,0c0-1.37,0-2.65,0-4.02
			c0.73,0,1.29,0,1.99,0c0.05-0.7,0.1-1.33,0.15-2.01c0.62-0.03,1.18-0.07,1.91-0.11c0-0.62,0-1.24,0-1.94c1.4,0,2.63,0,4.03,0
			c0-0.73,0-1.37,0-2.01C331.5,16.5,345.5,16.5,359.5,16.5z M323.5,52.49c0,1.26,0.02,2.26-0.01,3.26
			c-0.01,0.49,0.08,0.78,0.65,0.76c0.46-0.02,0.91,0.06,1.45,0.1c0,1.4,0,2.62,0,3.84c0.66,0.04,1.21,0.06,1.95,0.1
			c0,0.67,0,1.29,0,1.88c2.73,0,5.28,0,7.9,0c0.05-0.68,0.09-1.3,0.15-2c0.7,0,1.26,0,1.99,0c0-1.37,0-2.66,0-4.02
			c0.73,0,1.29,0,1.97,0c-0.14-1.37,0.1-2.66-0.16-4.01c-0.71,0-1.26,0-1.9,0c0-1.32,0-2.54,0-3.94c-0.7,0-1.32,0-1.93,0
			c-0.04-0.73-0.07-1.29-0.1-1.86c-2.69,0-5.3,0-7.91,0c-0.03,0.67-0.06,1.23-0.09,1.82c-0.71,0.06-1.33,0.11-2.03,0.17
			c0,1.36,0,2.59,0,3.89C324.79,52.49,324.23,52.49,323.5,52.49z M363.59,26.49c0,1.49,0,2.72,0,3.96c0.65,0,1.2,0,1.82,0
			c0-2,0-3.95,0-5.91c-0.66-0.04-1.22-0.07-1.95-0.11c0-0.67,0-1.29,0-2c-0.73,0-1.29,0-1.88,0c-0.07-0.7-0.13-1.33-0.18-1.85
			c-1.37,0-2.6,0-3.85,0c0,0.64,0,1.2,0,1.94c0.67,0,1.28,0,1.9,0c0.04,0.73,0.07,1.29,0.11,1.94c0.68,0.03,1.3,0.06,2,0.09
			c0,0.73,0,1.29,0,1.93C362.21,26.49,362.77,26.49,363.59,26.49z"/>
		<path class="st0" d="M19.5,28.5c0.58,0,1.17,0,1.93,0c0-1.28,0-2.57,0-3.94c0.73,0,1.29,0,2.03,0c0-0.7,0-1.32,0-2
			c0.73-0.04,1.29-0.07,1.95-0.1c0-0.57,0-1.13,0-1.86c1.37,0,2.65,0,4.02,0c0-0.74,0-1.3,0-1.97c14.03,0,27.98,0,42.02,0
			c0,0.54,0,1.1,0,1.83c1.36,0,2.66,0,4,0c0.04,0.73,0.07,1.29,0.11,1.95c0.57,0,1.12,0,1.82,0c0.08,0.7,0.15,1.31,0.23,2.02
			c0.55,0,1.11,0,1.85,0c0,1.36,0,2.66,0,4.01c0.73,0.04,1.29,0.07,1.96,0.11c0,8.61,0,17.22,0,25.9c-0.59,0.03-1.15,0.06-1.8,0.09
			c0,1.24,0,2.46,0,3.82c-0.7,0.08-1.32,0.15-2.02,0.23c0,0.56,0,1.12,0,1.82c-0.7,0.05-1.33,0.1-2.02,0.16
			c-0.03,0.61-0.07,1.17-0.1,1.83c-1.21,0-2.44,0-3.83,0c-0.07,0.7-0.14,1.31-0.21,2.01c-1.21,0-2.44,0-3.83,0
			c-0.03,0.7-0.06,1.31-0.1,2.03c1.34,0,2.57,0,3.97,0c0,0.71,0,1.33,0,2.03c1.4,0,2.63,0,3.95,0c0,0.64,0,1.19,0,1.89
			c0.7,0.08,1.31,0.15,2.02,0.23c0,0.55,0,1.11,0,1.81c0.7,0.06,1.33,0.11,2.03,0.17c0,1.27,0,2.5,0,3.9c0.71,0,1.33,0,1.99,0
			c0,8.73,0,17.29,0,25.94c-0.56,0-1.12,0-1.86,0c0,1.37,0,2.65,0,4.02c-0.74,0-1.29,0-2,0c-0.05,0.7-0.1,1.33-0.16,2.02
			c-0.61,0.03-1.17,0.07-1.91,0.11c0,0.61,0,1.24,0,1.93c-1.4,0-2.63,0-4.03,0c0,0.73,0,1.37,0,2.01c-14,0-28,0-42,0
			c0-0.64,0-1.29,0-2.01c-1.4,0-2.63,0-4.02,0c0-0.7,0-1.32,0-1.94c-0.74-0.04-1.3-0.07-1.92-0.11c-0.05-0.69-0.09-1.31-0.14-2.01
			c-0.7,0-1.26,0-1.99,0c0-1.37,0-2.66,0-3.94c-0.76,0-1.34,0-1.92,0C19.5,77.83,19.5,53.17,19.5,28.5z M47.51,48.58
			c-2.82,0-5.37,0-7.92,0c-0.08,0.7-0.15,1.32-0.23,2.01c-0.69,0-1.25,0-1.88,0c0,1.32,0,2.54,0,3.94c-0.7,0-1.32,0-1.92,0
			c0,1.4,0,2.62,0,4.02c0.68,0,1.3,0,2,0c0,1.4,0,2.62,0,3.88c0.7,0.06,1.33,0.12,2.02,0.18c0,0.69,0,1.25,0,1.82
			c2.64,0,5.19,0,7.75-0.01c0.06,0,0.12-0.11,0.26-0.24c0-0.49,0-1.04,0-1.59c0.7-0.07,1.32-0.14,2.01-0.21c0-1.38,0-2.61,0-3.83
			c0.66-0.03,1.21-0.06,1.8-0.09c0-1.35,0-2.63,0-3.91c-0.67-0.03-1.22-0.06-1.95-0.1c0-1.36,0-2.65,0-4.01c-0.73,0-1.29,0-1.93,0
			C47.51,49.79,47.51,49.23,47.51,48.58z M37.41,82.49c0,1.49,0,2.72,0,3.92c-0.7,0.07-1.32,0.14-1.82,0.19c0,1.4,0,2.62,0,3.85
			c0.65,0.03,1.21,0.06,1.94,0.1c0,1.34,0,2.63,0,3.89c0.73,0.04,1.29,0.07,1.9,0.1c0.06,0.7,0.1,1.32,0.15,1.87
			c2.7,0,5.26,0,7.84,0c0.06-0.69,0.12-1.31,0.18-2.01c0.69,0,1.25,0,1.98,0c0-1.37,0-2.65,0-4.01c0.74,0,1.29,0,1.86,0
			c0-1.32,0-2.54,0-3.94c-0.67,0-1.29,0-1.99,0c0-1.4,0-2.62,0-4.02c-0.7,0-1.32,0-2.02,0c0-0.73,0-1.29,0-1.84
			c-2.7,0-5.31,0-8.01,0c0,0.67,0,1.23,0,1.88C38.79,82.49,38.23,82.49,37.41,82.49z M77.41,32.45c0-2.09,0-3.99,0-5.96
			c-0.64,0-1.2,0-1.94,0c0-0.7,0-1.32,0-1.94c-0.73-0.04-1.29-0.07-1.94-0.11c-0.03-0.68-0.06-1.31-0.09-1.87c-1.4,0-2.63,0-3.97,0
			c0.03,0.7,0.06,1.32,0.1,2.01c0.73,0,1.28,0,1.83,0c0.07,0.7,0.14,1.32,0.21,2.01c0.72,0,1.27,0,1.83,0
			c0.04,0.66,0.07,1.22,0.1,1.84c0.69,0.05,1.31,0.1,2.01,0.15c0,1.37,0,2.6,0,3.87C76.21,32.45,76.77,32.45,77.41,32.45z
			 M73.51,70.59c-1.49,0-2.72,0-3.96,0c0,0.65,0,1.2,0,1.94c0.67,0,1.28,0,1.9,0c0.04,0.74,0.07,1.29,0.11,1.92
			c0.69,0.05,1.31,0.09,2.01,0.14c0,0.7,0,1.26,0,1.84c0.71,0.07,1.33,0.14,2.02,0.21c0,1.35,0,2.58,0,3.82c0.65,0,1.2,0,1.81,0
			c0-2,0-3.95,0-5.9c-0.66-0.04-1.22-0.07-1.87-0.1c-0.03-0.68-0.06-1.3-0.09-2c-0.73,0-1.29,0-1.93,0
			C73.51,71.79,73.51,71.23,73.51,70.59z"/>
		<path class="st0" d="M87.5,112.5c0-0.58,0-1.17,0-1.89c-0.61-0.06-1.23-0.12-1.94-0.19c0-1.24,0-2.47,0-3.87c-0.7,0-1.32,0-2,0
			c0-26.06,0-51.94,0-78c0.59,0,1.21,0,1.91,0c0-1.4,0-2.63,0-3.95c0.64,0,1.19,0,1.9,0c0.08-0.7,0.15-1.31,0.23-2.02
			c0.55,0,1.11,0,1.8,0c0.06-0.7,0.11-1.33,0.17-2.03c1.26,0,2.49,0,3.89,0c0-0.7,0-1.32,0-2c14.06,0,27.95,0,41.94,0
			c0,0.55,0,1.11,0,1.84c1.37,0,2.65,0,4.02,0c0,0.74,0,1.29,0,1.99c0.7,0.06,1.32,0.12,2.03,0.19c0.03,0.59,0.05,1.15,0.09,1.89
			c0.61,0,1.23,0,1.93,0c0,1.4,0,2.63,0,3.95c0.64,0,1.2,0,1.74,0c0.44,2.38,0.61,62.04,0.22,74c-0.55,0-1.11,0-1.85,0
			c0,1.37,0,2.65,0,4.02c-0.74,0-1.3,0-2,0c-0.05,0.7-0.1,1.32-0.16,2.01c-0.61,0.03-1.17,0.07-1.91,0.11c0,0.61,0,1.23,0,1.93
			c-1.4,0-2.63,0-4.03,0c0,0.73,0,1.37,0,2.01c-3.33,0-6.67,0-10,0c0-0.64,0-1.28,0-2.01c-1.4,0-2.62,0-4.02,0c0-0.7,0-1.32,0-1.94
			c-0.73-0.04-1.29-0.07-2.02-0.11c0-0.67,0-1.29,0-1.99c-0.73,0-1.29,0-2.02,0c0-1.37,0-2.66,0-4.02c-0.73,0-1.29,0-2.01,0
			c0-5.36,0-10.64,0-16c-0.72,0-1.28,0-2.01,0c0-1.37,0-2.65,0-4.02c-0.74,0-1.29,0-1.88,0c-0.03-0.65-0.05-1.21-0.08-1.81
			c-2.68,0-5.29,0-7.91,0c-0.04,0.66-0.07,1.22-0.11,1.95c-0.68,0-1.29,0-1.99,0c0,1.4,0,2.62,0,3.89c-0.7,0.06-1.33,0.11-2.01,0.17
			c0,6.68,0,13.23,0,19.83c-0.69,0.05-1.31,0.1-2.01,0.16c0,1.37,0,2.59,0,3.83c-0.7,0.07-1.33,0.14-1.93,0.2c0,0.72,0,1.3,0,1.88
			C92.83,112.5,90.17,112.5,87.5,112.5z M103.49,64.42c2.82,0,5.37,0,7.92,0c0.08-0.7,0.15-1.32,0.23-2.01c0.69,0,1.25,0,1.88,0
			c0-1.32,0-2.54,0-3.94c0.7,0,1.32,0,1.92,0c0-1.4,0-2.62,0-4.02c-0.68,0-1.3,0-2,0c0-1.4,0-2.62,0-3.88
			c-0.7-0.06-1.33-0.12-2.02-0.18c0-0.69,0-1.25,0-1.82c-2.64,0-5.19,0-7.75,0.01c-0.06,0-0.12,0.11-0.26,0.25c0,0.48,0,1.04,0,1.58
			c-0.7,0.07-1.32,0.14-2.01,0.21c0,1.38,0,2.6,0,3.83c-0.65,0.03-1.21,0.06-1.8,0.09c0,1.35,0,2.63,0,3.9
			c0.66,0.04,1.22,0.07,1.95,0.1c0,1.36,0,2.65,0,4.01c0.73,0,1.29,0,1.93,0C103.49,63.21,103.49,63.77,103.49,64.42z M137.51,22.59
			c-1.49,0-2.72,0-3.97,0c0,0.64,0,1.2,0,1.94c0.67,0,1.28,0,1.9,0c0.04,0.74,0.07,1.29,0.11,1.94c0.68,0.03,1.31,0.06,2.01,0.09
			c0,0.73,0,1.29,0,1.86c0.71,0.07,1.33,0.13,2.02,0.21c0,1.36,0,2.58,0,3.83c0.65,0,1.2,0,1.81,0c0-2,0-3.95,0-5.9
			c-0.66-0.04-1.22-0.07-1.95-0.11c0-0.68,0-1.3,0-2c-0.74,0-1.29,0-1.94,0C137.51,23.79,137.51,23.23,137.51,22.59z"/>
		<path class="st0" d="M157.5,112.5c0-0.58,0-1.17,0-1.92c-1.28,0-2.56,0-3.94,0c0-0.73,0-1.29,0-2.02
			c-0.7-0.03-1.32-0.06-2.01-0.09c-0.04-0.65-0.07-1.21-0.11-1.94c-0.62,0-1.24,0-1.94,0c0-1.4,0-2.63,0-3.94c-0.64,0-1.2,0-1.89,0
			c0-24.69,0-49.29,0-73.99c0.49,0,1.05,0,1.78,0c0-1.37,0-2.65,0-4.02c0.74,0,1.3,0,1.99,0c0.06-0.7,0.11-1.32,0.17-2.02
			c0.6-0.03,1.16-0.06,1.9-0.1c0-0.61,0-1.23,0-1.93c1.4,0,2.63,0,3.94,0c0-0.64,0-1.2,0-1.92c3.37-0.21,6.65-0.04,10.02-0.12
			c0,0.66,0,1.22,0,1.96c1.36,0,2.66,0,4.01,0c0.04,0.73,0.07,1.29,0.11,2.03c0.61,0,1.23,0,1.9,0c0.03,0.73,0.06,1.29,0.09,1.94
			c0.59,0,1.14,0,1.88,0c0,1.36,0,2.65,0,4.02c0.73,0,1.29,0,2.01,0c0,17.36,0,34.63,0,51.99c0.72,0,1.27,0,1.97,0
			c0.06,0.7,0.11,1.32,0.17,2.03c1.27,0,2.5,0,3.9,0c0,0.7,0,1.32,0,2.03c1.4,0,2.63,0,3.94,0c0,0.64,0,1.2,0,1.89
			c0.7,0.08,1.32,0.14,2.02,0.22c0,0.56,0,1.12,0,1.82c0.7,0.05,1.32,0.1,2.03,0.15c0,1.28,0,2.51,0,3.91c0.7,0,1.32,0,1.99,0
			c0,3.4,0,6.62,0,9.94c-0.57,0-1.13,0-1.87,0c0,1.36,0,2.65,0,4.02c-0.73,0-1.29,0-1.99,0c-0.05,0.7-0.1,1.32-0.15,2.01
			c-0.62,0.03-1.18,0.07-1.91,0.11c0,0.61,0,1.23,0,1.94c-1.4,0-2.63,0-4.03,0c0,0.73,0,1.37,0,2.01
			C174.83,112.5,166.17,112.5,157.5,112.5z M165.55,24.59c0.76,0,1.32,0,1.87,0c0.07,0.7,0.14,1.32,0.21,2.01c0.72,0,1.27,0,1.83,0
			c0.04,0.66,0.07,1.22,0.1,1.84c0.69,0.05,1.31,0.1,2.01,0.15c0,1.37,0,2.6,0,3.93c0.71-0.04,1.33-0.07,1.85-0.09
			c0-2.07,0-3.96,0-5.94c-0.64,0-1.2,0-1.94,0c0-0.69,0-1.32,0-1.94c-0.74-0.04-1.29-0.07-1.92-0.11c-0.05-0.68-0.09-1.31-0.13-1.87
			c-1.38,0-2.61,0-3.88,0C165.55,23.21,165.55,23.77,165.55,24.59z M185.41,88.51c0-0.82,0-1.38,0-1.96c-1.31,0-2.54,0-3.81,0
			c0,0.67,0,1.29,0,1.9c0.66,0.04,1.22,0.07,1.84,0.1c0.05,0.68,0.09,1.31,0.14,2.01c0.7,0,1.26,0,1.84,0
			c0.07,0.71,0.14,1.33,0.21,2.03c0.69,0,1.25,0,1.89,0c0,1.31,0,2.54,0,3.81c0.71,0,1.32,0,1.92,0c0-1.99,0-3.88,0-5.86
			c-0.68-0.03-1.3-0.06-2-0.09c0-0.73,0-1.29,0-1.93C186.79,88.51,186.23,88.51,185.41,88.51z"/>
		<path class="st0" d="M205.5,112.5c0-0.58,0-1.17,0-1.92c-1.28,0-2.56,0-3.94,0c0-0.73,0-1.29,0-2.02
			c-0.7-0.03-1.32-0.06-2.01-0.09c-0.04-0.65-0.07-1.21-0.11-1.94c-0.62,0-1.24,0-1.94,0c0-1.4,0-2.63,0-3.94c-0.64,0-1.2,0-1.89,0
			c0-24.69,0-49.29,0-73.99c0.49,0,1.05,0,1.78,0c0-1.37,0-2.65,0-4.02c0.74,0,1.3,0,1.99,0c0.06-0.7,0.11-1.32,0.17-2.02
			c0.6-0.03,1.16-0.06,1.9-0.1c0-0.61,0-1.23,0-1.93c1.4,0,2.63,0,3.94,0c0-0.64,0-1.2,0-1.92c3.37-0.21,6.65-0.04,10.02-0.12
			c0,0.66,0,1.22,0,1.96c1.36,0,2.66,0,4.01,0c0.04,0.73,0.07,1.29,0.11,2.03c0.61,0,1.23,0,1.9,0c0.03,0.73,0.06,1.29,0.09,1.94
			c0.59,0,1.14,0,1.88,0c0,1.36,0,2.65,0,4.02c0.73,0,1.29,0,2.01,0c0,17.36,0,34.63,0,51.99c0.72,0,1.27,0,1.97,0
			c0.06,0.7,0.11,1.32,0.17,2.03c1.27,0,2.5,0,3.9,0c0,0.7,0,1.32,0,2.03c1.4,0,2.63,0,3.94,0c0,0.64,0,1.2,0,1.89
			c0.7,0.08,1.32,0.14,2.02,0.22c0,0.56,0,1.12,0,1.82c0.7,0.05,1.32,0.1,2.03,0.15c0,1.28,0,2.51,0,3.91c0.7,0,1.32,0,1.99,0
			c0,3.4,0,6.62,0,9.94c-0.57,0-1.13,0-1.87,0c0,1.36,0,2.65,0,4.02c-0.73,0-1.29,0-1.99,0c-0.05,0.7-0.1,1.32-0.15,2.01
			c-0.62,0.03-1.18,0.07-1.91,0.11c0,0.61,0,1.23,0,1.94c-1.4,0-2.63,0-4.03,0c0,0.73,0,1.37,0,2.01
			C222.83,112.5,214.17,112.5,205.5,112.5z M219.5,24.59c-0.66-0.07-1.34-0.14-2.1-0.22c0-0.72,0-1.27,0-1.81c-1.33,0-2.55,0-3.78,0
			c0,0.69,0,1.3,0,2c0.67,0,1.23,0,1.8,0c0.07,0.7,0.14,1.33,0.21,2.02c0.69,0,1.24,0,1.89,0c0,0.64,0,1.2,0,1.94
			c0.7,0,1.32,0,2.03,0c0,1.4,0,2.63,0,3.86c0.71,0,1.32,0,1.88,0c0-2.01,0-3.9,0-5.81c-0.69-0.07-1.32-0.13-1.92-0.19
			C219.5,25.75,219.5,25.25,219.5,24.59z M233.59,90.49c0,0.82,0,1.38,0,1.93c0.7,0.07,1.32,0.14,2.01,0.21c0,1.39,0,2.61,0,3.81
			c0.66,0,1.22,0,1.79,0c0-2.01,0-3.96,0-6c-0.67,0-1.23,0-1.81,0c-0.07-0.7-0.13-1.33-0.19-2.03c-0.69,0-1.25,0-1.8,0
			c-0.07-0.7-0.14-1.32-0.19-1.82c-1.4,0-2.63,0-3.83,0c0,0.66,0,1.22,0,1.95c0.68,0,1.3,0,2,0c0,0.73,0,1.29,0,1.94
			C232.21,90.49,232.77,90.49,233.59,90.49z"/>
	</g>
	<g>
		<path class="st1" d="M397.5,28.49c-0.73,0-1.29,0-1.94,0c0-0.65,0-1.2,0-1.91c-0.7-0.05-1.33-0.1-2.01-0.14
			c-0.03-0.62-0.07-1.18-0.11-1.91c-0.62,0-1.24,0-1.9,0c0-0.73,0-1.29,0-1.94c1.24,0,2.47,0,3.84,0c0.05,0.52,0.12,1.14,0.19,1.85
			c0.58,0,1.14,0,1.87,0c0.03,0.7,0.06,1.33,0.09,2c0.65,0.04,1.21,0.07,1.86,0.1c0,1.95,0,3.9,0,5.95c-0.37,0-0.69-0.01-1.01,0
			c-0.54,0.03-0.97,0.02-0.91-0.75C397.55,30.76,397.5,29.75,397.5,28.49z"/>
		<path class="st1" d="M443.5,24.59c0,0.66,0,1.16,0,1.79c0.61,0.06,1.23,0.12,1.92,0.19c0,1.91,0,3.8,0,5.81c-0.56,0-1.18,0-1.88,0
			c0-1.23,0-2.46,0-3.86c-0.7,0-1.32,0-2.03,0c0-0.73,0-1.29,0-1.94c-0.64,0-1.2,0-1.89,0c-0.07-0.7-0.14-1.32-0.21-2.02
			c-0.57,0-1.13,0-1.8,0c0-0.7,0-1.32,0-2c1.23,0,2.46,0,3.78,0c0,0.54,0,1.09,0,1.81C442.16,24.45,442.84,24.52,443.5,24.59z"/>
		<path class="st1" d="M299.59,24.5c0.66,0,1.16,0,1.66,0c0.05,0.06,0.16,0.11,0.16,0.17c0.01,1.89,0.01,3.78,0.01,5.75
			c-0.58,0-1.14,0-1.87,0c0-1.22,0-2.51,0-3.86c-0.73-0.04-1.29-0.07-2.03-0.11c0-0.61,0-1.24,0-1.93c-0.73,0-1.29,0-1.94,0
			c0-0.64,0-1.2,0-1.89c-0.7-0.07-1.32-0.14-2.01-0.21c0-0.57,0-1.13,0-1.8c1.23,0,2.51,0,3.87,0c0.03,0.56,0.06,1.12,0.1,1.78
			c0.55,0,1.11,0,1.83,0C299.45,23.16,299.52,23.84,299.59,24.5z"/>
		<path class="st1" d="M363.59,26.49c-0.82,0-1.38,0-2.03,0c0-0.64,0-1.2,0-1.93c-0.7-0.03-1.32-0.06-2-0.09
			c-0.04-0.65-0.07-1.21-0.11-1.94c-0.62,0-1.24,0-1.9,0c0-0.73,0-1.29,0-1.94c1.25,0,2.48,0,3.85,0c0.05,0.53,0.11,1.15,0.18,1.85
			c0.58,0,1.14,0,1.88,0c0,0.71,0,1.33,0,2c0.73,0.04,1.29,0.07,1.95,0.11c0,1.96,0,3.91,0,5.91c-0.61,0-1.17,0-1.82,0
			C363.59,29.2,363.59,27.98,363.59,26.49z"/>
		<path class="st1" d="M77.41,32.45c-0.65,0-1.2,0-1.85,0c0-1.27,0-2.5,0-3.87c-0.7-0.05-1.32-0.1-2.01-0.15
			c-0.03-0.62-0.07-1.18-0.1-1.84c-0.55,0-1.11,0-1.83,0c-0.07-0.7-0.14-1.31-0.21-2.01c-0.55,0-1.1,0-1.83,0
			c-0.03-0.7-0.06-1.31-0.1-2.01c1.34,0,2.56,0,3.97,0c0.03,0.56,0.05,1.18,0.09,1.87c0.65,0.04,1.21,0.07,1.94,0.11
			c0,0.62,0,1.23,0,1.94c0.73,0,1.29,0,1.94,0C77.41,28.46,77.41,30.36,77.41,32.45z"/>
		<path class="st1" d="M73.51,70.59c0,0.65,0,1.21,0,1.85c0.65,0,1.2,0,1.93,0c0.03,0.7,0.06,1.32,0.09,2
			c0.65,0.04,1.21,0.07,1.87,0.1c0,1.95,0,3.9,0,5.9c-0.61,0-1.17,0-1.81,0c0-1.24,0-2.47,0-3.82c-0.69-0.07-1.32-0.13-2.02-0.21
			c0-0.57,0-1.13,0-1.84c-0.7-0.05-1.32-0.09-2.01-0.14c-0.03-0.62-0.07-1.18-0.11-1.92c-0.62,0-1.23,0-1.9,0c0-0.73,0-1.29,0-1.94
			C70.8,70.59,72.02,70.59,73.51,70.59z"/>
		<path class="st1" d="M137.51,22.59c0,0.65,0,1.21,0,1.85c0.64,0,1.2,0,1.94,0c0,0.7,0,1.32,0,2c0.73,0.04,1.29,0.07,1.95,0.11
			c0,1.95,0,3.9,0,5.9c-0.61,0-1.17,0-1.81,0c0-1.24,0-2.47,0-3.83c-0.69-0.07-1.32-0.13-2.02-0.21c0-0.58,0-1.13,0-1.86
			c-0.7-0.03-1.32-0.06-2.01-0.09c-0.04-0.65-0.07-1.2-0.11-1.94c-0.62,0-1.23,0-1.9,0c0-0.73,0-1.29,0-1.94
			C134.8,22.59,136.02,22.59,137.51,22.59z"/>
		<path class="st1" d="M165.55,24.59c0-0.82,0-1.38,0-2.01c1.27,0,2.5,0,3.88,0c0.04,0.56,0.08,1.19,0.13,1.87
			c0.62,0.03,1.18,0.07,1.92,0.11c0,0.62,0,1.24,0,1.94c0.74,0,1.3,0,1.94,0c0,1.97,0,3.87,0,5.94c-0.52,0.03-1.14,0.06-1.85,0.09
			c0-1.33,0-2.56,0-3.93c-0.7-0.05-1.32-0.1-2.01-0.15c-0.03-0.62-0.07-1.18-0.1-1.84c-0.55,0-1.11,0-1.83,0
			c-0.07-0.7-0.14-1.31-0.21-2.01C166.87,24.59,166.31,24.59,165.55,24.59z"/>
		<path class="st1" d="M185.41,88.51c0.82,0,1.38,0,2.03,0c0,0.65,0,1.2,0,1.93c0.7,0.03,1.32,0.06,2,0.09c0,1.98,0,3.87,0,5.86
			c-0.6,0-1.22,0-1.92,0c0-1.27,0-2.5,0-3.81c-0.64,0-1.2,0-1.89,0c-0.07-0.7-0.13-1.32-0.21-2.03c-0.57,0-1.13,0-1.84,0
			c-0.05-0.7-0.09-1.33-0.14-2.01c-0.62-0.03-1.18-0.07-1.84-0.1c0-0.62,0-1.24,0-1.9c1.28,0,2.5,0,3.81,0
			C185.41,87.13,185.41,87.69,185.41,88.51z"/>
		<path class="st1" d="M219.5,24.59c0,0.66,0,1.16,0,1.79c0.61,0.06,1.23,0.12,1.92,0.19c0,1.91,0,3.8,0,5.81c-0.56,0-1.18,0-1.88,0
			c0-1.23,0-2.46,0-3.86c-0.7,0-1.32,0-2.03,0c0-0.74,0-1.3,0-1.94c-0.64,0-1.2,0-1.89,0c-0.07-0.7-0.14-1.32-0.21-2.02
			c-0.57,0-1.13,0-1.8,0c0-0.7,0-1.32,0-2c1.23,0,2.46,0,3.78,0c0,0.54,0,1.09,0,1.81C218.16,24.45,218.84,24.52,219.5,24.59z"/>
		<path class="st1" d="M233.59,90.49c-0.82,0-1.38,0-2.03,0c0-0.65,0-1.2,0-1.94c-0.7,0-1.32,0-2,0c0-0.73,0-1.29,0-1.95
			c1.21,0,2.43,0,3.83,0c0.05,0.5,0.12,1.11,0.19,1.82c0.55,0,1.11,0,1.8,0c0.07,0.7,0.13,1.32,0.19,2.03c0.58,0,1.14,0,1.81,0
			c0,2.03,0,3.98,0,6c-0.57,0-1.13,0-1.79,0c0-1.2,0-2.43,0-3.81c-0.7-0.07-1.31-0.14-2.01-0.21
			C233.59,91.87,233.59,91.31,233.59,90.49z"/>
	</g>
</g>
<g>
	<g>
		<path class="st0" d="M695,18.5c2.67,0,5.33,0,8,0c0,0.64,0,1.28,0,1.9c0.79,0.08,1.4,0.15,2.1,0.22c0,1.38,0,2.6,0,3.83
			c0.65,0.03,1.21,0.06,1.93,0.1c0,5.33,0,10.61,0,15.9c0.72,0.04,1.28,0.06,2.01,0.1c0,1.34,0,2.63,0,3.89
			c0.73,0.04,1.29,0.07,1.9,0.1c0.05,0.69,0.1,1.32,0.15,1.87c2.71,0,5.26,0,7.85,0c0.06-0.69,0.12-1.31,0.18-2.01
			c0.69,0,1.25,0,1.98,0c0-1.37,0-2.65,0-4.01c0.73,0,1.29,0,1.91,0c0-3.91,0-7.72,0-11.54c0-0.07,0.05-0.15,0.09-0.21
			c0.05-0.06,0.12-0.11,0.29-0.26c0.45,0,1,0,1.64,0c0-1.32,0-2.54,0-3.94c0.7,0,1.32,0,1.93,0c0.04-0.73,0.07-1.29,0.1-1.9
			c0.7-0.06,1.32-0.1,2.02-0.16c0-0.7,0-1.26,0-1.99c1.37,0,2.66,0,3.93,0c0-0.76,0-1.34,0-1.92c3.33,0,6.67,0,10,0
			c0,0.64,0,1.29,0,2.01c1.4,0,2.63,0,4.03,0c0,0.7,0,1.32,0,1.94c0.74,0.04,1.3,0.07,1.91,0.11c0.05,0.69,0.1,1.31,0.15,2.01
			c0.7,0,1.26,0,2,0c0,1.37,0,2.66,0,4.02c0.74,0,1.29,0,1.79,0c0,24.7,0,49.3,0,73.99c-0.68,0-1.24,0-1.88,0c0,1.31,0,2.54,0,3.94
			c-0.69,0-1.32,0-1.94,0c-0.04,0.74-0.07,1.3-0.11,1.94c-0.68,0.03-1.3,0.06-2,0.09c0,0.73,0,1.29,0,2.02c-1.37,0-2.66,0-3.94,0
			c0,0.76,0,1.34,0,1.92c-3.33,0-6.67,0-10,0c0-0.64,0-1.28,0-2.01c-1.4,0-2.62,0-4.02,0c0-0.7,0-1.32,0-1.94
			c-0.73-0.04-1.29-0.07-2.02-0.11c0-0.67,0-1.29,0-1.99c-0.73,0-1.29,0-2.02,0c0-1.37,0-2.66,0-4.02c-0.73,0-1.29,0-2.01,0
			c0-5.36,0-10.64,0-16c-0.72,0-1.28,0-2.01,0c0-1.37,0-2.65,0-4.02c-0.73,0-1.29,0-1.88,0c-0.03-0.65-0.05-1.21-0.08-1.81
			c-2.68,0-5.29,0-7.91,0c-0.04,0.66-0.07,1.22-0.11,1.95c-0.68,0-1.29,0-1.99,0c0,1.4,0,2.62,0,3.89c-0.7,0.06-1.33,0.11-2.01,0.17
			c0,6.68,0,13.23,0,19.83c-0.69,0.05-1.31,0.1-2.01,0.16c0,1.37,0,2.59,0,3.83c-0.7,0.07-1.33,0.14-1.93,0.2c0,0.72,0,1.3,0,1.88
			c-2.67,0-5.33,0-8,0c0-0.64,0-1.29,0-1.91c-0.79-0.08-1.4-0.15-2.1-0.22c0-1.38,0-2.61,0-3.83c-0.66-0.04-1.22-0.07-1.84-0.1
			c0-27.32,0-54.57,0-81.88c0.68-0.05,1.3-0.1,2-0.15c0-1.37,0-2.59,0-3.83c0.71-0.07,1.33-0.14,1.94-0.2
			C695,19.66,695,19.08,695,18.5z M745.01,22.59c-1.49,0-2.72,0-3.96,0c0,0.65,0,1.2,0,1.94c0.66,0,1.28,0,1.9,0
			c0.04,0.73,0.07,1.29,0.11,1.91c0.69,0.05,1.31,0.09,2.01,0.14c0,0.7,0,1.26,0,1.83c0.7,0.07,1.33,0.14,2.02,0.21
			c0,1.35,0,2.58,0,3.82c0.65,0,1.2,0,1.81,0c0-2,0-3.95,0-5.9c-0.66-0.04-1.22-0.07-1.86-0.1c-0.03-0.68-0.06-1.3-0.09-2
			c-0.73,0-1.29,0-1.93,0C745.01,23.8,745.01,23.24,745.01,22.59z M701.08,24.49c0,1.48,0,2.7,0,3.93c0.7,0.07,1.32,0.14,2,0.21
			c0,1.35,0,2.57,0,3.89c0.7-0.04,1.32-0.07,1.84-0.09c0-2.06,0-3.94,0-5.85c-0.69-0.07-1.31-0.13-2-0.2c0-1.35,0-2.57,0-3.76
			c-1.36,0-2.64,0-3.85,0c0,0.68,0,1.23,0,1.87C699.71,24.49,700.27,24.49,701.08,24.49z"/>
		<path class="st0" d="M637,18.5c14,0,28,0,42,0c0,0.64,0,1.29,0,2.01c1.4,0,2.63,0,4.03,0c0,0.7,0,1.32,0,1.93
			c0.74,0.04,1.3,0.07,1.9,0.11c0.06,0.7,0.11,1.32,0.16,2.02c0.7,0,1.26,0,2,0c0,1.37,0,2.65,0,4.02c0.74,0,1.29,0,1.85,0
			c0,3.32,0,6.55,0,9.95c-0.67,0-1.29,0-2,0c0,1.4,0,2.63,0,3.88c-0.71,0.07-1.33,0.13-2.03,0.2c0,0.69,0,1.25,0,1.89
			c-0.65,0-1.21,0-1.94,0c0,0.71,0,1.32,0,2.03c-1.4,0-2.63,0-3.9,0c-0.06,0.71-0.11,1.33-0.15,1.87c-4.04,0-7.94,0-11.82,0
			c-0.08-0.7-0.15-1.32-0.23-2.01c-0.69,0-1.25,0-1.82,0c-0.04-0.66-0.07-1.22-0.11-1.95c-0.68,0-1.3,0-2,0c0-0.74,0-1.3,0-1.87
			c-0.71-0.07-1.33-0.14-2.03-0.21c0-0.69,0-1.25,0-1.84c-0.65-0.03-1.21-0.05-1.94-0.09c0-0.67,0-1.29,0-1.9
			c-0.74-0.04-1.3-0.07-1.9-0.1c-0.06-0.7-0.11-1.32-0.16-1.86c-2.71,0-5.27,0-7.82,0c-0.08,0.7-0.15,1.32-0.23,2.01
			c-0.7,0-1.25,0-1.9,0c0,1.32,0,2.55,0,3.86c-0.71,0.03-1.33,0.06-2.03,0.09c0,1.4,0,2.63,0,3.86c-0.71,0.07-1.33,0.14-1.85,0.19
			c0,15.37,0,30.59,0,45.91c0.64,0,1.2,0,1.94,0c0,1.37,0,2.66,0,3.93c0.74,0.04,1.3,0.07,1.9,0.11c0.06,0.7,0.11,1.32,0.15,1.86
			c2.71,0,5.27,0,7.82,0c0.08-0.7,0.15-1.32,0.23-2.01c0.69,0,1.25,0,1.89,0c0-1.32,0-2.55,0-3.95c0.71,0,1.32,0,1.9,0
			c0-2.07,0-3.96,0-6.03c-3.3,0-6.52,0-9.75-0.01c-0.06,0-0.12-0.11-0.26-0.25c0-0.48,0-1.04,0-1.59c-0.71-0.07-1.32-0.14-1.81-0.19
			c0-4.08,0-7.97,0-11.85c0.66-0.04,1.22-0.07,1.83-0.1c0.06-0.7,0.11-1.32,0.15-1.86c8.71,0,17.27,0,25.82,0
			c0.08,0.7,0.15,1.32,0.23,2.01c1.36,0,2.58,0,3.82,0c0.03,0.65,0.06,1.21,0.1,1.95c1.34,0,2.63,0,4,0c0,0.74,0,1.29,0,1.88
			c0.71,0.07,1.33,0.13,2.03,0.2c0,0.69,0,1.25,0,1.8c0.7,0.07,1.32,0.14,2.01,0.21c0,1.39,0,2.62,0,3.83
			c0.66,0.04,1.22,0.07,1.78,0.1c0,6.7,0,13.31,0,20.02c-0.68,0-1.24,0-1.97,0c0,1.37,0,2.65,0,4.02c-0.74,0-1.3,0-1.87,0
			c-0.03,0.65-0.06,1.21-0.1,1.95c-0.68,0-1.29,0-2,0c0,0.74,0,1.3,0,2.03c-1.37,0-2.66,0-3.94,0c0,0.76,0,1.34,0,1.93
			c-3.33,0-6.67,0-10,0c0-0.64,0-1.28,0-2.01c-1.39,0-2.62,0-4.02,0c0-0.69,0-1.31,0-1.95c-0.73-0.04-1.29-0.06-2.02-0.1
			c0-0.66,0-1.29,0-1.9c-0.73-0.04-1.29-0.07-2.02-0.11c0-1.36,0-2.65,0-4.01c-0.73,0-1.29,0-1.86,0c-0.07-0.71-0.14-1.33-0.19-1.85
			c-0.7,0-1.26,0-1.81,0c-0.07,0.7-0.14,1.32-0.21,2.01c-0.71,0-1.27,0-1.91,0c0,1.32,0,2.55,0,3.94c-0.69,0-1.31,0-1.92,0
			c-0.04,0.73-0.06,1.29-0.1,1.89c-0.7,0.06-1.33,0.11-2.02,0.17c0,0.7,0,1.25,0,1.98c-1.37,0-2.65,0-3.93,0c0,0.75,0,1.34,0,1.92
			c-3.33,0-6.67,0-10,0c0-0.64,0-1.29,0-2.01c-1.4,0-2.63,0-4.03,0c0-0.7,0-1.32,0-1.94c-0.74-0.04-1.3-0.07-1.91-0.11
			c-0.05-0.69-0.1-1.31-0.15-2.01c-0.7,0-1.26,0-1.99,0c0-1.37,0-2.66,0-4.02c-0.74,0-1.29,0-1.79,0c0-24.7,0-49.3,0-73.99
			c0.68,0,1.24,0,1.88,0c0-1.31,0-2.54,0-3.94c0.7,0,1.32,0,1.94,0c0.04-0.74,0.07-1.3,0.11-1.94c0.68-0.03,1.3-0.06,2-0.09
			c0-0.73,0-1.29,0-2.02c1.37,0,2.66,0,3.94,0C637,19.67,637,19.08,637,18.5z M682.91,26.51c0-0.83,0-1.38,0-2.03
			c-0.65,0-1.2,0-1.94,0c0-0.69,0-1.32,0-1.92c-1.4,0-2.63,0-3.86,0c0,0.68,0,1.3,0,2c0.67,0,1.23,0,1.81,0
			c0.07,0.71,0.14,1.33,0.21,2.03c0.69,0,1.25,0,1.89,0c0,0.65,0,1.21,0,1.94c0.7,0,1.32,0,2.03,0c0,1.4,0,2.63,0,3.86
			c0.71,0,1.32,0,1.89,0c0-2.01,0-3.9,0-5.87C684.3,26.51,683.74,26.51,682.91,26.51z M684.95,80.41c-0.76,0-1.32,0-1.87,0
			c-0.07-0.7-0.14-1.32-0.21-2.01c-0.72,0-1.27,0-1.83,0c-0.04-0.66-0.07-1.22-0.1-1.79c-1.36,0-2.64,0-3.87,0c0,0.68,0,1.23,0,1.81
			c0.69,0.07,1.32,0.13,2.01,0.2c0,0.69,0,1.25,0,1.79c0.7,0.07,1.32,0.14,2.01,0.21c0,0.72,0,1.28,0,1.83
			c0.66,0.04,1.22,0.07,1.95,0.11c0,1.35,0,2.64,0,3.86c0.74,0,1.29,0,1.9,0C684.95,84.46,684.95,82.57,684.95,80.41z"/>
		<path class="st0" d="M483,102.5c0-24.67,0-49.33,0-74c0.64,0,1.29,0,2.01,0c0-1.4,0-2.62,0-4.02c0.7,0,1.32,0,1.94,0
			c0.04-0.74,0.07-1.3,0.11-1.92c0.68-0.05,1.31-0.09,2.01-0.14c0-0.7,0-1.26,0-1.99c1.37,0,2.66,0,3.94,0c0-0.76,0-1.34,0-1.92
			c14,0,28,0,42,0c0,0.64,0,1.29,0,2.01c1.4,0,2.63,0,4.03,0c0,0.71,0,1.32,0,1.94c0.74,0.04,1.3,0.07,1.91,0.11
			c0.05,0.69,0.1,1.31,0.15,2.01c0.7,0,1.26,0,2,0c0,1.37,0,2.66,0,4.02c0.74,0,1.29,0,1.86,0c0,2.65,0,5.21,0,7.94
			c-0.67,0-1.29,0-1.99,0c0,1.4,0,2.63,0,3.9c-0.71,0.06-1.33,0.11-2.03,0.17c0,0.7,0,1.26,0,1.81c-0.71,0.08-1.32,0.15-2.02,0.23
			c0,0.69,0,1.25,0,1.89c-1.32,0-2.55,0-3.95,0c0,0.71,0,1.32,0,2.02c-6.73,0-13.29,0-19.89,0c-0.06,0.7-0.11,1.32-0.16,2.02
			c-0.7,0-1.26,0-1.9,0c0,5.24,0,10.39,0,15.54c0,0.07,0.04,0.15,0.08,0.21c0.05,0.07,0.12,0.12,0.27,0.26c9.8,0,19.68,0,29.56,0
			c0.08,0.7,0.15,1.32,0.23,2.01c0.71,0,1.26,0,1.81,0c0,3.32,0,6.55,0,9.95c-0.68,0-1.29,0-2,0c0,0.74,0,1.29,0,2.02
			c-8.7,0-17.32,0-26.02,0c0,0.73,0,1.29,0,1.84c-0.71,0.08-1.33,0.15-2.02,0.23c0,4.69,0,9.24,0,13.82
			c-0.65,0.03-1.21,0.06-1.94,0.09c0,2.01,0,3.96,0,5.9c-0.74,0.04-1.3,0.07-2.03,0.11c0,1.36,0,2.65,0,4.01c-0.73,0-1.29,0-1.85,0
			c-0.08,0.7-0.15,1.32-0.23,2.02c-0.69,0-1.25,0-1.82,0c-0.03,0.65-0.06,1.21-0.1,1.95c-1.34,0-2.63,0-4,0c0,0.73,0,1.29,0,1.84
			c-3.37,0-6.66,0-10.02,0c0-0.68,0-1.24,0-1.88c-1.31,0-2.54,0-3.94,0c0-0.69,0-1.32,0-1.95c-0.73-0.04-1.3-0.07-2.03-0.11
			c0-0.67,0-1.29,0-2c-0.74,0-1.29,0-1.87,0c-0.07-0.71-0.13-1.33-0.19-1.94C484.17,102.5,483.58,102.5,483,102.5z M536.99,28.59
			c0.82,0,1.38,0,2.03,0c0,1.31,0,2.54,0,3.81c0.71,0,1.32,0,1.93,0c0-1.99,0-3.88,0-5.95c-0.68,0-1.3,0-2,0c0-0.73,0-1.29,0-1.88
			c-0.71-0.07-1.33-0.13-2.03-0.19c0-0.69,0-1.25,0-1.83c-1.31,0-2.54,0-3.82,0c0,0.67,0,1.28,0,1.91c0.66,0.04,1.22,0.07,1.95,0.11
			c0,0.68,0,1.3,0,2c0.74,0,1.29,0,1.94,0C536.99,27.21,536.99,27.77,536.99,28.59z M542.93,68.58c-0.59-0.06-1.27-0.13-2.02-0.2
			c0-0.72,0-1.27,0-1.89c-1.37,0.05-2.65-0.07-3.82,0.06c0,0.77,0,1.33,0,1.87c0.7,0.07,1.32,0.13,2,0.19c0,0.72,0,1.27,0,1.84
			c0.65,0.03,1.21,0.06,1.93,0.09c0,1.33,0,2.61,0,3.89c0.72,0,1.28,0,1.9,0C542.93,72.52,542.93,70.63,542.93,68.58z"/>
		<path class="st0" d="M817,28.5c0,3.33,0,6.67,0,10c-0.64,0-1.29,0-2.01,0c0,1.4,0,2.63,0,4.03c-0.7,0-1.32,0-1.93,0
			c-0.04,0.74-0.07,1.3-0.11,1.91c-0.69,0.05-1.32,0.1-2.02,0.16c0,0.7,0,1.26,0,2c-1.37,0-2.66,0-4.02,0c0,0.74,0,1.29,0,1.94
			c-1.32,0-2.55,0-3.95,0c0,0.71,0,1.32,0,2.03c-0.74,0-1.29,0-2.02,0c0,17.37,0,34.65,0,52.02c-0.73,0-1.29,0-2.03,0
			c0,1.37,0,2.65,0,4.02c-0.74,0-1.3,0-1.86,0c-0.03,0.66-0.06,1.22-0.1,1.95c-0.67,0-1.29,0-2,0c0,0.74,0,1.29,0,2.03
			c-1.37,0-2.66,0-3.94,0c0,0.76,0,1.34,0,1.93c-3.33,0-6.67,0-10,0c0-0.64,0-1.29,0-2.01c-1.4,0-2.63,0-4.03,0
			c0-0.71,0-1.32,0-1.94c-0.74-0.04-1.3-0.07-1.91-0.11c-0.05-0.69-0.1-1.31-0.15-2.01c-0.7,0-1.26,0-2,0c0-1.37,0-2.66,0-4.02
			c-0.74,0-1.29,0-2,0c0-17.31,0-34.52-0.01-51.74c0-0.06-0.11-0.11-0.27-0.26c-0.46,0-1.02,0-1.6,0c-0.03-0.65-0.06-1.21-0.09-1.94
			c-1.34,0-2.63,0-3.9,0c-0.04-0.74-0.07-1.3-0.11-2.03c-1.36,0-2.65,0-4.02,0c0-0.73,0-1.29,0-1.85c-0.71-0.08-1.32-0.15-2.02-0.23
			c0-0.7,0-1.25,0-1.82c-0.66-0.03-1.22-0.06-1.95-0.1c0-1.34,0-2.63,0-4c-0.73,0-1.29,0-1.84,0c0-3.37,0-6.66,0-10.02
			c0.68,0,1.24,0,1.88,0c0-1.31,0-2.54,0-3.94c0.7,0,1.32,0,1.94,0c0.04-0.74,0.07-1.3,0.11-1.94c0.68-0.03,1.3-0.06,2-0.09
			c0-0.73,0-1.29,0-2.02c1.37,0,2.66,0,3.94,0c0-0.76,0-1.34,0-1.92c14,0,28,0,42,0c0,0.64,0,1.29,0,2.01c1.4,0,2.62,0,4.02,0
			c0,0.7,0,1.32,0,1.94c0.74,0.04,1.3,0.07,1.92,0.11c0.05,0.69,0.09,1.31,0.14,2.01c0.7,0,1.26,0,1.99,0c0,1.37,0,2.66,0,3.94
			C815.83,28.5,816.42,28.5,817,28.5z M811.01,24.41c-0.83,0-1.38,0-1.93,0c-0.07-0.7-0.14-1.32-0.19-1.81c-1.41,0-2.63,0-3.83,0
			c0,0.66,0,1.22,0,1.84c0.68,0.05,1.3,0.09,2,0.14c0,0.7,0,1.26,0,1.84c0.71,0.07,1.33,0.14,2.03,0.21c0,0.69,0,1.25,0,1.79
			c0.7,0.07,1.32,0.13,2.01,0.21c0,1.39,0,2.61,0,3.81c0.66,0,1.22,0,1.79,0c0-2.02,0-3.96,0-6c-0.67,0-1.23,0-1.87,0
			C811.01,25.79,811.01,25.23,811.01,24.41z"/>
		<path class="st0" d="M583,112.5c-8.67,0-17.33,0-26,0c0-0.64,0-1.29,0-2.01c-1.4,0-2.63,0-4.03,0c0-0.7,0-1.32,0-1.94
			c-0.74-0.04-1.3-0.07-1.91-0.11c-0.05-0.69-0.1-1.31-0.15-2.01c-0.7,0-1.26,0-1.99,0c0-1.37,0-2.66,0-4.02c-0.74,0-1.29,0-1.79,0
			c0-24.7,0-49.3,0-73.99c0.68,0,1.24,0,1.88,0c0-1.31,0-2.54,0-3.94c0.7,0,1.32,0,1.94,0c0.04-0.74,0.07-1.3,0.11-1.94
			c0.68-0.03,1.3-0.06,2-0.09c0-0.73,0-1.29,0-2.02c1.37,0,2.66,0,3.94,0c0-0.76,0-1.34,0-1.92c3.33,0,6.67,0,10,0
			c0,0.64,0,1.29,0,2.01c1.4,0,2.63,0,4.03,0c0,0.69,0,1.32,0,1.94c0.74,0.04,1.3,0.07,1.91,0.11c0.05,0.69,0.1,1.31,0.15,2.01
			c0.7,0,1.26,0,2,0c0,1.37,0,2.66,0,4.02c0.74,0,1.29,0,2,0c0,17.31,0,34.52,0.01,51.74c0,0.06,0.11,0.11,0.27,0.26
			c0.46,0,1.02,0,1.57,0c0.07,0.7,0.13,1.32,0.2,2.01c1.4,0,2.62,0,3.83,0c0.04,0.67,0.07,1.23,0.11,1.96c1.36,0,2.65,0,4.02,0
			c0,0.73,0,1.29,0,1.85c0.7,0.08,1.32,0.15,2.02,0.23c0,0.7,0,1.25,0,1.82c0.66,0.03,1.22,0.06,1.95,0.1c0,1.34,0,2.63,0,4
			c0.73,0,1.29,0,1.84,0c0,3.37,0,6.66,0,10.02c-0.68,0-1.24,0-1.88,0c0,1.31,0,2.54,0,3.94c-0.7,0-1.32,0-1.94,0
			c-0.04,0.74-0.07,1.3-0.11,1.94c-0.68,0.03-1.3,0.06-2,0.09c0,0.73,0,1.29,0,2.02c-1.37,0-2.66,0-3.94,0
			C583,111.33,583,111.92,583,112.5z M565.05,24.59c0.76,0,1.32,0,1.87,0c0.07,0.7,0.14,1.32,0.21,2.01c0.72,0,1.27,0,1.83,0
			c0.04,0.66,0.07,1.22,0.1,1.84c0.69,0.05,1.31,0.1,2.01,0.15c0,1.37,0,2.6,0,3.93c0.71-0.04,1.33-0.07,1.85-0.09
			c0-2.07,0-3.96,0-5.94c-0.65,0-1.2,0-1.94,0c0-0.7,0-1.32,0-1.94c-0.74-0.04-1.29-0.07-1.92-0.11c-0.05-0.69-0.09-1.31-0.13-1.87
			c-1.38,0-2.61,0-3.88,0C565.05,23.21,565.05,23.77,565.05,24.59z M588.95,90.41c-0.76,0-1.32,0-1.87,0
			c-0.07-0.7-0.14-1.32-0.21-2.01c-0.72,0-1.27,0-1.83,0c-0.04-0.66-0.07-1.22-0.1-1.79c-1.36,0-2.64,0-3.87,0c0,0.68,0,1.23,0,1.81
			c0.7,0.07,1.32,0.14,2.01,0.21c0,0.69,0,1.24,0,1.79c0.7,0.07,1.32,0.13,2.01,0.21c0,0.73,0,1.28,0,1.83
			c0.66,0.04,1.22,0.07,1.95,0.11c0,1.35,0,2.64,0,3.86c0.74,0,1.29,0,1.9,0C588.95,94.46,588.95,92.57,588.95,90.41z"/>
		<path class="st0" d="M605,18.5c3.33,0,6.67,0,10,0c0,0.64,0,1.29,0,2.01c1.4,0,2.63,0,4.03,0c0,0.69,0,1.32,0,1.94
			c0.74,0.04,1.3,0.07,1.91,0.11c0.05,0.68,0.1,1.31,0.15,2.01c0.7,0,1.26,0,1.99,0c0,1.37,0,2.66,0,4.02c0.74,0,1.29,0,1.8,0
			c0,24.03,0,47.96,0,71.98c-0.68,0-1.24,0-1.97,0c0,1.37,0,2.66,0,4.02c-0.74,0-1.29,0-1.87,0c-0.03,0.65-0.06,1.21-0.09,1.94
			c-0.67,0-1.29,0-1.9,0c-0.04,0.74-0.07,1.3-0.1,2.03c-1.36,0-2.65,0-4.02,0c0,0.74,0,1.29,0,1.95c-3.37-0.08-6.65,0.1-10.02-0.12
			c0-0.72,0-1.28,0-1.92c-1.32,0-2.55,0-3.94,0c0-0.7,0-1.32,0-1.93c-0.74-0.04-1.3-0.07-1.89-0.1c-0.06-0.71-0.12-1.33-0.18-2.03
			c-0.7,0-1.25,0-1.99,0c0-1.37,0-2.65,0-4.02c-0.74,0-1.29,0-1.78,0c0-24.03,0-47.97,0-71.99c0.68,0,1.24,0,1.89,0
			c0-1.31,0-2.54,0-3.94c0.7,0,1.32,0,1.94,0c0.04-0.74,0.07-1.3,0.11-1.94c0.68-0.03,1.3-0.06,2.01-0.09c0-0.73,0-1.29,0-2.02
			c1.37,0,2.66,0,3.94,0C605,19.67,605,19.08,605,18.5z M619.09,28.49c0,1.49,0,2.72,0,3.96c0.65,0,1.2,0,1.81,0c0-2,0-3.95,0-5.9
			c-0.66-0.04-1.22-0.07-1.95-0.11c0-0.68,0-1.3,0-2c-0.74,0-1.29,0-1.87,0c-0.07-0.71-0.13-1.33-0.18-1.85c-1.37,0-2.6,0-3.85,0
			c0,0.65,0,1.2,0,1.94c0.67,0,1.28,0,1.9,0c0.04,0.74,0.07,1.29,0.11,1.94c0.68,0.03,1.31,0.06,2.01,0.09c0,0.73,0,1.29,0,1.93
			C617.71,28.49,618.27,28.49,619.09,28.49z"/>
	</g>
	<g>
		<path class="st1" d="M745.01,22.59c0,0.65,0,1.21,0,1.85c0.65,0,1.2,0,1.93,0c0.03,0.7,0.06,1.32,0.09,2
			c0.65,0.04,1.21,0.07,1.86,0.1c0,1.95,0,3.9,0,5.9c-0.61,0-1.17,0-1.81,0c0-1.24,0-2.47,0-3.82c-0.7-0.07-1.32-0.14-2.02-0.21
			c0-0.57,0-1.13,0-1.83c-0.7-0.05-1.32-0.09-2.01-0.14c-0.03-0.62-0.07-1.18-0.11-1.91c-0.62,0-1.24,0-1.9,0c0-0.73,0-1.29,0-1.94
			C742.29,22.59,743.52,22.59,745.01,22.59z"/>
		<path class="st1" d="M701.08,24.49c-0.81,0-1.37,0-2,0c0-0.64,0-1.19,0-1.87c1.21,0,2.48,0,3.85,0c0,1.19,0,2.41,0,3.76
			c0.69,0.07,1.31,0.13,2,0.2c0,1.9,0,3.78,0,5.85c-0.53,0.03-1.14,0.06-1.84,0.09c0-1.32,0-2.54,0-3.89
			c-0.69-0.07-1.31-0.14-2-0.21C701.08,27.19,701.08,25.97,701.08,24.49z"/>
		<path class="st1" d="M682.91,26.51c0.82,0,1.38,0,2.01,0c0,1.98,0,3.87,0,5.87c-0.56,0-1.18,0-1.89,0c0-1.23,0-2.46,0-3.86
			c-0.7,0-1.32,0-2.03,0c0-0.73,0-1.29,0-1.94c-0.64,0-1.2,0-1.89,0c-0.07-0.7-0.13-1.32-0.21-2.03c-0.57,0-1.13,0-1.81,0
			c0-0.7,0-1.32,0-2c1.23,0,2.46,0,3.86,0c0,0.61,0,1.23,0,1.92c0.73,0,1.29,0,1.94,0C682.91,25.13,682.91,25.69,682.91,26.51z"/>
		<path class="st1" d="M684.95,80.41c0,2.15,0,4.04,0,6.01c-0.6,0-1.16,0-1.9,0c0-1.22,0-2.51,0-3.86
			c-0.73-0.04-1.29-0.07-1.95-0.11c0-0.55,0-1.11,0-1.83c-0.7-0.07-1.31-0.13-2.01-0.21c0-0.55,0-1.11,0-1.79
			c-0.7-0.07-1.32-0.13-2.01-0.2c0-0.58,0-1.13,0-1.81c1.23,0,2.51,0,3.87,0c0.03,0.57,0.06,1.13,0.1,1.79c0.55,0,1.11,0,1.83,0
			c0.07,0.7,0.14,1.31,0.21,2.01C683.63,80.41,684.19,80.41,684.95,80.41z"/>
		<path class="st1" d="M536.99,28.59c0-0.82,0-1.38,0-2.03c-0.64,0-1.2,0-1.94,0c0-0.7,0-1.32,0-2c-0.73-0.04-1.29-0.07-1.95-0.11
			c0-0.62,0-1.24,0-1.91c1.28,0,2.5,0,3.82,0c0,0.59,0,1.15,0,1.83c0.7,0.07,1.32,0.13,2.03,0.19c0,0.58,0,1.14,0,1.88
			c0.7,0,1.32,0,2,0c0,2.06,0,3.96,0,5.95c-0.61,0-1.22,0-1.93,0c0-1.28,0-2.5,0-3.81C538.37,28.59,537.81,28.59,536.99,28.59z"/>
		<path class="st1" d="M542.93,68.58c0,2.05,0,3.93,0,5.86c-0.63,0-1.18,0-1.9,0c0-1.28,0-2.56,0-3.89
			c-0.72-0.03-1.28-0.06-1.93-0.09c0-0.57,0-1.12,0-1.84c-0.69-0.07-1.3-0.13-2-0.19c0-0.54,0-1.1,0-1.87
			c1.17-0.13,2.45-0.01,3.82-0.06c0,0.63,0,1.18,0,1.89C541.66,68.46,542.34,68.53,542.93,68.58z"/>
		<path class="st1" d="M811.01,24.41c0,0.82,0,1.38,0,2.03c0.65,0,1.2,0,1.87,0c0,2.03,0,3.98,0,6c-0.57,0-1.13,0-1.79,0
			c0-1.2,0-2.42,0-3.81c-0.7-0.07-1.31-0.13-2.01-0.21c0-0.55,0-1.11,0-1.79c-0.7-0.07-1.32-0.13-2.03-0.21c0-0.57,0-1.13,0-1.84
			c-0.7-0.05-1.33-0.09-2-0.14c0-0.62,0-1.18,0-1.84c1.2,0,2.43,0,3.83,0c0.05,0.5,0.12,1.11,0.19,1.81
			C809.63,24.41,810.19,24.41,811.01,24.41z"/>
		<path class="st1" d="M565.05,24.59c0-0.82,0-1.38,0-2.01c1.27,0,2.5,0,3.88,0c0.04,0.56,0.08,1.18,0.13,1.87
			c0.62,0.03,1.18,0.07,1.92,0.11c0,0.62,0,1.23,0,1.94c0.73,0,1.29,0,1.94,0c0,1.97,0,3.87,0,5.94c-0.52,0.03-1.14,0.06-1.85,0.09
			c0-1.34,0-2.56,0-3.93c-0.7-0.05-1.32-0.1-2.01-0.15c-0.03-0.62-0.07-1.18-0.1-1.84c-0.55,0-1.11,0-1.83,0
			c-0.07-0.7-0.14-1.31-0.21-2.01C566.37,24.59,565.81,24.59,565.05,24.59z"/>
		<path class="st1" d="M588.95,90.41c0,2.15,0,4.04,0,6.01c-0.6,0-1.16,0-1.9,0c0-1.22,0-2.51,0-3.86
			c-0.73-0.04-1.29-0.07-1.95-0.11c0-0.55,0-1.1,0-1.83c-0.7-0.07-1.31-0.13-2.01-0.21c0-0.55,0-1.11,0-1.79
			c-0.7-0.07-1.32-0.14-2.01-0.21c0-0.57,0-1.13,0-1.81c1.23,0,2.51,0,3.87,0c0.03,0.56,0.06,1.12,0.1,1.79c0.55,0,1.11,0,1.83,0
			c0.07,0.7,0.14,1.31,0.21,2.01C587.63,90.41,588.19,90.41,588.95,90.41z"/>
		<path class="st1" d="M619.09,28.49c-0.82,0-1.38,0-2.02,0c0-0.64,0-1.2,0-1.93c-0.7-0.03-1.32-0.06-2.01-0.09
			c-0.04-0.65-0.07-1.2-0.11-1.94c-0.62,0-1.23,0-1.9,0c0-0.73,0-1.29,0-1.94c1.25,0,2.47,0,3.85,0c0.05,0.52,0.11,1.15,0.18,1.85
			c0.58,0,1.14,0,1.87,0c0,0.7,0,1.32,0,2c0.73,0.04,1.29,0.07,1.95,0.11c0,1.95,0,3.9,0,5.9c-0.61,0-1.17,0-1.81,0
			C619.09,31.21,619.09,29.98,619.09,28.49z"/>
	</g>
</g>
</svg>
